<?xml version="1.0" encoding="UTF-8"?>
<svg width="72px" height="72px" viewBox="0 0 72 72" version="1.1" xmlns="http://www.w3.org/2000/svg" xmlns:xlink="http://www.w3.org/1999/xlink">
    <!-- Generator: Sketch 51.2 (57519) - http://www.bohemiancoding.com/sketch -->
    <title>Calendar</title>
    <desc>Created with Sketch.</desc>
    <defs></defs>
    <g id="Page-1" stroke="none" stroke-width="1" fill="none" fill-rule="evenodd">
        <g id="Artboard" transform="translate(-325.000000, -196.000000)" fill-rule="nonzero">
            <g id="Calendar" transform="translate(330.000000, 203.000000)">
                <path d="M4.3869,51.2662967 L29.4369,51.2662967 C29.09475,49.771177 28.9134,48.2137416 28.9134,46.6138947 C28.9134,35.3387177 37.90005,26.1657416 48.9462,26.1657416 C52.18725,26.1657416 55.25055,26.9564019 57.96195,28.3572057 L57.96195,16.3397512 L0.02085,16.3397512 L0.02085,46.8097225 C0.02085,49.2669856 1.9794,51.2662967 4.3869,51.2662967 Z" id="Shape" fill="#FDDADA"></path>
                <path d="M57.9621,8.07242105 C57.9621,5.61500478 56.00355,3.616 53.5962,3.616 L50.27925,3.616 L50.27925,1.53110048 C50.27925,0.685626794 49.60755,0 48.77925,0 C47.95095,0 47.27925,0.685626794 47.27925,1.53110048 L47.27925,3.61584689 L10.7037,3.61584689 L10.7037,1.53110048 C10.7037,0.685626794 10.032,0 9.2037,0 C8.3754,0 7.7037,0.685626794 7.7037,1.53110048 L7.7037,3.61584689 L4.3869,3.61584689 C1.9794,3.61584689 0.02085,5.61500478 0.02085,8.07226794 L0.02085,13.2773971 L57.9621,13.2773971 L57.9621,8.07242105 Z" id="Shape" fill="#FDDADA"></path>
                <path d="M31.91355,46.6138947 C31.91355,56.2005742 39.5544,64 48.94635,64 C58.3383,64 65.9793,56.2007273 65.9793,46.6138947 C65.9793,37.0273684 58.33845,29.2279426 48.94635,29.2279426 C39.5544,29.2280957 31.91355,37.0273684 31.91355,46.6138947 Z M55.28805,47.0057033 C56.11635,47.0057033 56.78805,47.6913301 56.78805,48.5368038 C56.78805,49.3822775 56.11635,50.0679043 55.28805,50.0679043 L47.7747,50.0679043 C46.9464,50.0679043 46.2747,49.3822775 46.2747,48.5368038 L46.2747,38.3113493 C46.2747,37.4658756 46.9464,36.7802488 47.7747,36.7802488 C48.603,36.7802488 49.2747,37.4658756 49.2747,38.3113493 L49.2747,47.0057033 L55.28805,47.0057033 Z" id="Shape" fill="#F69A98"></path>
            </g>
        </g>
    </g>
</svg>