<?xml version="1.0" encoding="UTF-8"?>
<svg width="72px" height="72px" viewBox="0 0 72 72" version="1.1" xmlns="http://www.w3.org/2000/svg" xmlns:xlink="http://www.w3.org/1999/xlink">
    <!-- Generator: Sketch 51.2 (57519) - http://www.bohemiancoding.com/sketch -->
    <title>Transaction_Fill</title>
    <desc>Created with Sketch.</desc>
    <defs></defs>
    <g id="Page-1" stroke="none" stroke-width="1" fill="none" fill-rule="evenodd">
        <g id="Artboard" transform="translate(-141.000000, -196.000000)" fill-rule="nonzero">
            <g id="Transaction_Fill" transform="translate(150.000000, 200.000000)">
                <g id="Transaction---Out">
                    <path d="M8.232,0.222222222 L45.768,0.222222222 C50.1884871,0.222222222 53.772,3.74867074 53.772,8.09876543 L53.772,55.9012346 C53.772,60.2513293 50.1884871,63.7777778 45.768,63.7777778 L8.232,63.7777778 C3.81151286,63.7777778 0.228,60.2513293 0.228,55.9012346 L0.228,8.09876543 C0.228,3.74867074 3.81151286,0.222222222 8.232,0.222222222 Z" id="Combined-Shape" fill="#FDDADA"></path>
                    <path d="M14.5305068,20.4725147 L39.4694932,20.4725147 C40.1789067,20.4725147 40.754,19.8273858 40.754,19.031579 C40.754,18.2357722 40.1789067,17.5906433 39.4694932,17.5906433 L14.5305068,17.5906433 C13.8210933,17.5906433 13.246,18.2357722 13.246,19.031579 C13.246,19.8273858 13.8210933,20.4725147 14.5305068,20.4725147 Z" id="Shape" fill="#F69A98"></path>
                    <path d="M27.3726963,29.0113927 L39.3233037,29.0113927 C40.1134554,29.0113927 40.754,28.3662638 40.754,27.570457 C40.754,26.7746502 40.1134554,26.1295213 39.3233037,26.1295213 L27.3726963,26.1295213 C26.5825446,26.1295213 25.942,26.7746502 25.942,27.570457 C25.942,28.3662638 26.5825446,29.0113927 27.3726963,29.0113927 Z" id="Shape" fill="#F69A98"></path>
                </g>
            </g>
        </g>
    </g>
</svg>