<?xml version="1.0" encoding="UTF-8"?>
<svg width="72px" height="72px" viewBox="0 0 72 72" version="1.1" xmlns="http://www.w3.org/2000/svg" xmlns:xlink="http://www.w3.org/1999/xlink">
    <!-- Generator: Sketch 51.2 (57519) - http://www.bohemiancoding.com/sketch -->
    <title>P2P</title>
    <desc>Created with Sketch.</desc>
    <defs></defs>
    <g id="Page-1" stroke="none" stroke-width="1" fill="none" fill-rule="evenodd">
        <g id="Artboard" transform="translate(-141.000000, -318.000000)">
            <g id="Boy" transform="translate(144.000000, 321.000000)">
                <g id="Girl-Shoulder">
                    <ellipse id="Oval-5" fill="#ECECEC" cx="32.8748276" cy="32.7696069" rx="32.8748276" ry="32.7696069"></ellipse>
                    <rect id="Rectangle" fill="#FFEBEB" x="30.6831724" y="50.2467306" width="7.30551724" height="5.09749441"></rect>
                    <path d="M29.946707,55.0072729 C29.946707,55.0072729 25.7202011,54.9624068 22.7500889,56.5371501 C19.7799766,58.1118934 17.2910389,61.5727965 17.2910389,61.5727965 C17.2910389,61.5727965 23.4592322,65.8930974 33.8475633,65.5881284 C44.2358945,65.2831595 49.6890035,60.9193312 49.6890035,60.9193312 C49.6890035,60.9193312 47.1314593,57.6716102 44.9610001,56.5371501 C42.7905409,55.40269 41.8890015,55.0318181 37.4362589,55.0318181 L29.946707,55.0072729 Z" id="Path-3" fill="#FEBBBA"></path>
                </g>
                <g transform="translate(10.227724, 10.194989)">
                    <path d="M37.6494075,3.22798833 C37.446662,3.65277953 37.2396028,4.07757073 37.0368573,4.49811402 C36.9290139,4.72325336 37.0282298,4.92290522 37.252544,5.01635929 C40.496472,6.36294739 42.7137312,9.06886734 43.4513797,12.4119741 C43.1192222,12.3567512 42.7870647,12.3057763 42.4592209,12.2505534 C42.1270634,12.1953306 41.8768668,12.5521552 42.1227497,12.8197736 C43.7403999,14.5571696 44.2019695,16.8128109 44.2839304,19.1066834 C44.322754,20.1856531 44.2925579,21.2688706 44.1847145,22.3393444 C44.1717733,22.4497902 43.4384385,26.4513233 43.1666733,26.1582173 C42.9639278,25.9415738 42.6705939,26.1369778 42.6403977,26.3706129 C42.4937308,27.4495826 42.1572595,28.3076608 41.566278,29.1317557 C41.8854943,27.2924098 41.9027492,25.3850973 41.6568664,23.5160161 C41.6396115,23.3715871 41.5533368,23.2696372 41.4454934,23.2144143 L41.6180428,23.2144143 C42.0580437,23.520264 42.7611823,23.2441497 43.123536,22.9043167 C43.723145,22.3563361 43.8827531,21.4302913 43.7792235,20.6656671 C43.5635368,19.1024355 41.889808,17.8875327 40.4015698,18.8433129 C40.2505891,18.9452627 40.2290204,19.1066834 40.2807853,19.2383687 C40.2721578,19.2426166 40.2678441,19.2426166 40.2635303,19.2468645 C39.8192157,19.6461682 39.3964698,20.0667115 38.9823513,20.4915027 C39.0384299,19.2043854 38.7019586,18.0362096 37.9298002,16.8935212 C37.7831333,16.6726298 37.4596032,16.7151089 37.3733285,16.9657358 C37.3345049,17.0379503 37.2913676,17.1101648 37.2482303,17.1866272 C37.170583,16.133145 36.8082294,15.168869 36.1525418,14.2470721 C36.0619534,14.1238826 35.8764628,14.0389244 35.7297959,14.1408743 C33.4995954,15.6913622 31.0623357,16.6259028 28.3748794,16.9232566 C28.56037,16.5451925 28.6854683,16.1671283 28.7846842,15.6913622 C28.836449,15.4407353 28.56037,15.168869 28.3101734,15.3345375 C25.2085987,17.3565437 21.6713368,18.3335634 17.9917217,18.3080759 C18.522311,17.9045243 18.9579981,17.4330061 19.3678029,16.8340505 C19.4929012,16.6471424 19.3893715,16.46873 19.2297634,16.3965155 C19.2470183,16.3880197 19.2642733,16.3837718 19.2815282,16.375276 C19.3721166,16.3370448 19.3721166,16.1926158 19.2556458,16.1968637 C16.4517187,16.2223512 13.5399482,17.097421 10.8007272,17.6538975 C7.7595447,18.2740927 4.21365536,19.4804997 1.33639479,17.9342597 C2.38031842,17.3820311 3.23012401,16.6683819 3.88149784,15.6403872 C3.94189012,15.5384373 3.92463518,15.4279916 3.85992917,15.3472813 C4.0022824,15.2410835 4.0152236,15.0032004 3.79522316,14.9522255 C2.01365103,14.5274343 3.54071286,12.6880884 4.17051802,11.6048708 C4.9038528,10.3474889 5.76228586,9.1623214 6.73718975,8.07060802 C8.63091897,5.95939575 10.9387667,4.19226436 13.5226933,2.9688657 C19.6223132,0.0760376249 26.6666408,0.449853881 32.6929272,3.29595492 C32.9690061,3.4276402 33.2364576,3.26197163 33.2666538,2.9688657 C33.3054774,2.60354527 33.3486147,2.23822484 33.3874383,1.8729044 C34.5995976,2.90939493 36.0446985,3.35542569 37.6494075,3.22798833" id="Fill-172" fill="#9B9B9B"></path>
                    <path d="M35.4537169,15.0924066 C36.7737195,14.9394817 36.7305822,17.4287582 36.6270526,18.3293155 C36.6011702,18.5799423 36.976465,18.7243713 37.1403869,18.5374632 C37.3862697,18.2528531 37.5631328,17.9894825 37.7141135,17.6963766 C38.3266638,18.8093296 38.5121543,19.9307783 38.2964676,21.251879 C38.2533303,21.5152495 38.5811741,21.7913638 38.8011745,21.540737 C39.4050973,20.865319 39.9831376,20.1771572 40.5223544,19.4550122 C40.5913741,19.463508 40.6603938,19.4592601 40.7380411,19.4082852 C41.842357,18.6946359 42.9596141,19.6334245 43.1278497,20.7506253 C43.2098106,21.2901102 43.1451046,21.876322 42.8129471,22.3223528 C42.441966,22.8193585 42.0666711,22.7513919 41.5447093,22.9043167 C41.4541209,22.9340521 41.4325522,23.036002 41.4929445,23.1039686 C41.5317681,23.1464477 41.5749055,23.1846789 41.6180428,23.2144143 L41.4454934,23.2144143 C41.2125518,23.0954728 40.8717668,23.1931748 40.9149041,23.5160161 C41.5145132,28.2524379 40.4835308,33.2097513 36.9031315,36.6335683 C33.2019478,40.1805749 28.2713498,40.2145582 23.4313403,40.0191542 C18.9666256,39.8407419 14.2517144,39.4244465 10.4771971,36.8289723 C6.00385497,33.7577319 5.53365796,28.7876749 4.92110774,23.8898323 C4.89953907,23.6944284 4.60620515,23.6816846 4.60189142,23.8898323 L4.60189142,23.8983281 C3.71326222,23.5330077 2.76855447,23.0105145 2.5054167,22.0292469 C2.17325918,20.7888566 3.06188839,19.8373243 4.32149871,19.9520179 C4.64502876,19.9817533 4.65796996,19.5314746 4.39483219,19.4337726 C4.33875365,19.4125331 4.28267511,19.3997893 4.22659656,19.3827977 C5.52934423,19.4210289 6.8709155,19.1831458 8.20817304,18.9155274 C11.6160229,18.2358614 15.4595599,17.8153182 18.733684,16.5791758 C18.1728986,17.3522957 17.5517209,17.8747889 16.7019153,18.3208197 C16.3826989,18.4907362 16.5552483,18.9367669 16.8787784,18.9580065 C20.8603548,19.1958896 24.5615386,18.2655968 27.9564472,16.2945657 C27.8356627,16.5961674 27.6760545,16.8850254 27.4689953,17.1568918 C27.3395833,17.3607916 27.5078189,17.6751371 27.7623292,17.6581454 C29.5395876,17.5222122 31.25214,17.1781314 32.8956727,16.4857217 C33.6074388,16.1841199 34.7419508,15.1773648 35.4537169,15.0924066 Z" id="Fill-173" fill="#FFEBEB"></path>
                    <path d="M41.9200042,21.1924082 C41.8078471,21.2433831 41.7000037,21.298606 41.6007879,21.3835642 C41.436866,21.5237453 41.3592188,21.6979097 41.2384342,21.8678262 C41.1478458,21.9952636 40.8717668,21.9697761 40.8976492,21.7786201 C40.9451003,21.4005559 41.2815715,20.9842605 41.6568664,20.7846086 C41.4670621,20.6019484 41.2125518,20.4830069 40.9364728,20.4362799 C40.7725509,20.4065445 40.7768647,20.1474218 40.9364728,20.1176865 C41.1478458,20.0752073 41.3117677,20.0709594 41.5231406,20.1431739 C41.7129449,20.2111405 41.8811806,20.3088425 42.0278475,20.4362799 C42.3470638,20.6996504 42.5411819,21.103202 42.5411819,21.5110016 C42.5368681,21.8635783 41.9933376,21.8593304 41.9847102,21.5110016 C41.9803964,21.396308 41.954514,21.2901102 41.9200042,21.1924082" id="Fill-174" fill="#AAAAAA"></path>
                    <path d="M35.759992,24.1149717 C36.0145023,24.6417127 36.0231298,25.2321725 35.777247,25.7674094 C35.6348937,26.0690112 35.1129319,25.8481198 35.2294028,25.5380222 C35.3890109,25.1217268 35.3976384,24.7054314 35.2207753,24.289136 C35.0482259,23.8940802 34.6858723,23.6859325 34.4874405,23.32486 C34.4744993,23.2951246 34.4874405,23.2568934 34.5176366,23.2526455 C35.0697946,23.1252082 35.5399916,23.6561972 35.759992,24.1149717" id="Fill-175" fill="#AAAAAA"></path>
                    <path d="M34.0517534,24.2169215 C34.2243027,24.2509048 34.3278323,24.4293171 34.3364598,24.582242 C34.3580285,24.9645541 34.1811654,25.3638578 33.8360667,25.5507659 C33.5168504,25.7249303 33.0984182,25.6569637 32.8568491,25.3935932 C32.7533194,25.2788995 32.7015546,25.1387184 32.6929272,24.9942894 C32.6584173,24.9050833 32.662731,24.8073813 32.7317508,24.7139272 C32.7403782,24.7011835 32.7490057,24.6969356 32.7576332,24.6884398 C32.8007705,24.6034815 32.8654765,24.531267 32.9560649,24.4717963 C33.0380259,24.4250692 33.1243006,24.3995818 33.214889,24.3825901 C33.4521443,24.2296653 33.749792,24.1659466 34.0517534,24.2169215" id="Fill-176" fill="#AAAAAA"></path>
                    <path d="M25.9376197,30.8181768 C25.7952665,31.8674111 24.2638909,32.4281354 23.4960463,31.6507676 C23.2113399,31.3619095 23.6297721,30.9838454 23.9360472,31.2174805 C24.3846755,31.5658093 25.251736,31.3534137 25.3380107,30.7374665 C25.4329129,30.1045276 24.7297742,29.79443 24.1733025,29.8326612 C24.0180081,30.1385109 23.5089875,30.0110735 23.6211446,29.6584968 C24.6909506,26.2431756 24.5787935,23.1039686 23.3364381,19.7481181 C23.2631047,19.5442183 23.5952622,19.4125331 23.6944781,19.5994412 C25.251736,22.5857233 25.4803639,26.1327299 24.376048,29.2974243 C25.1654614,29.2124661 26.0454631,30.0025777 25.9376197,30.8181768" id="Fill-177" fill="#AAAAAA"></path>
                    <path d="M30.4842954,35.2232615 C27.1066416,37.6360756 22.3485931,37.9929002 18.8328999,35.635309 C18.6172132,35.49088 18.8027037,35.1892783 19.0356454,35.2954761 C22.7497703,37.0201283 26.6925232,36.939418 30.1090005,34.5860747 C30.505864,34.3099605 30.8682177,34.9471473 30.4842954,35.2232615" id="Fill-178" fill="#AAAAAA"></path>
                    <path d="M14.6226955,24.3528547 C14.7693624,24.4887879 14.8642646,24.6714481 14.8556371,24.8838437 C14.8470096,25.3256266 14.4415187,25.690947 14.0015178,25.7036907 C13.5787719,25.7121866 13.1948495,25.3766015 13.1172023,24.9772978 C13.0309276,24.5397629 13.3156341,24.1362112 13.7426937,24.0215176 C14.0877925,23.9280635 14.4415187,24.0682446 14.6226955,24.3528547" id="Fill-179" fill="#AAAAAA"></path>
                    <path d="M11.8015135,25.8438718 C11.0034727,25.2831475 10.9517079,24.0427572 11.72818,23.4353057 C12.05171,23.1846789 12.5089658,23.6307097 12.1854358,23.8855844 C11.6807289,24.2763923 11.6375916,25.015529 12.0905336,25.4700556 C12.2803379,25.6569637 12.0258276,26.0010446 11.8015135,25.8438718" id="Fill-180" fill="#AAAAAA"></path>
                    <path d="M3.42424204,22.458286 C3.12228066,21.8423387 3.21286908,20.7378816 3.99365493,20.4957506 C4.15757682,20.4447757 4.33443991,20.6486755 4.22659656,20.7931045 C4.09287081,20.9757647 3.93326265,21.1201937 3.82110557,21.3071018 C3.98502746,21.345333 4.14463562,21.4005559 4.29993004,21.4727704 C4.33443991,21.4642746 4.37326352,21.4727704 4.40777339,21.4982579 L4.77012705,21.7701242 C4.78306825,21.782868 4.79600945,21.7871159 4.80895065,21.7998596 C4.99444121,21.9570324 4.73130344,22.2076592 4.54581288,22.0589822 C4.42502833,21.9655282 4.30855751,21.8720741 4.18777296,21.7786201 C4.15757682,21.7531326 4.14463562,21.7233972 4.13600815,21.6936618 C4.0152236,21.6087036 3.88149784,21.5364891 3.73483089,21.4770183 C3.63130127,21.7616284 3.63561501,22.0419906 3.73914462,22.3266007 C3.80816437,22.5092609 3.50620299,22.6324504 3.42424204,22.458286" id="Fill-181" fill="#AAAAAA"></path>
                    <path d="M32.6929272,3.29595492 C26.6666408,0.449853881 19.6223132,0.0760376249 13.5226933,2.9688657 C10.9387667,4.19226436 8.63091897,5.95939575 6.73718975,8.07060802 C5.76228586,9.1623214 4.9038528,10.3474889 4.17051802,11.6048708 C3.54071286,12.6880884 2.01365103,14.5274343 3.79522316,14.9522255 C4.0152236,15.0032004 4.0022824,15.2410835 3.85992917,15.3472813 C3.92463518,15.4279916 3.94189012,15.5384373 3.88149784,15.6403872 C3.23012401,16.6683819 2.38031842,17.3820311 1.33639479,17.9342597 C4.21365536,19.4804997 7.7595447,18.2740927 10.8007272,17.6538975 C13.5399482,17.097421 16.4517187,16.2223512 19.2556458,16.1968637 C19.3721166,16.1926158 19.3721166,16.3370448 19.2815282,16.375276 C19.2642733,16.3837718 19.2470183,16.3880197 19.2297634,16.3965155 C19.3893715,16.46873 19.4929012,16.6471424 19.3678029,16.8340505 C18.9579981,17.4330061 18.522311,17.9045243 17.9917217,18.3080759 C21.6713368,18.3335634 25.2085987,17.3565437 28.3101734,15.3345375 C28.56037,15.168869 28.836449,15.4407353 28.7846842,15.6913622 C28.6854683,16.1671283 28.56037,16.5451925 28.3748794,16.9232566 C31.0623357,16.6259028 33.4995954,15.6913622 35.7297959,14.1408743 C35.8764628,14.0389244 36.0619534,14.1238826 36.1525418,14.2470721 C36.8082294,15.168869 37.170583,16.133145 37.2482303,17.1866272 C37.2913676,17.1101648 37.3345049,17.0379503 37.3733285,16.9657358 C37.4596032,16.7151089 37.7831333,16.6726298 37.9298002,16.8935212 C38.7019586,18.0362096 39.0384299,19.2043854 38.9823513,20.4915027 C39.3964698,20.0667115 39.8192157,19.6461682 40.2635303,19.2468645 C40.2678441,19.2426166 40.2721578,19.2426166 40.2807853,19.2383687 C40.2290204,19.1066834 40.2505891,18.9452627 40.4015698,18.8433129 C41.889808,17.8875327 43.5635368,19.1024355 43.7792235,20.6656671 C43.8827531,21.4302913 43.723145,22.3563361 43.123536,22.9043167 C42.7611823,23.2441497 42.0580437,23.520264 41.6180428,23.2144143 C41.5749055,23.1846789 41.5317681,23.1464477 41.4929445,23.1039686 C41.4325522,23.036002 41.4541209,22.9340521 41.5447093,22.9043167 C42.0666711,22.7513919 42.441966,22.8193585 42.8129471,22.3223528 C43.1451046,21.876322 43.2098106,21.2901102 43.1278497,20.7506253 C42.9596141,19.6334245 41.842357,18.6946359 40.7380411,19.4082852 C40.6603938,19.4592601 40.5913741,19.463508 40.5223544,19.4550122 C39.9831376,20.1771572 39.4050973,20.865319 38.8011745,21.540737 C38.5811741,21.7913638 38.2533303,21.5152495 38.2964676,21.251879 C38.5121543,19.9307783 38.3266638,18.8093296 37.7141135,17.6963766 C37.5631328,17.9894825 37.3862697,18.2528531 37.1403869,18.5374632 C36.976465,18.7243713 36.6011702,18.5799423 36.6270526,18.3293155 C36.7305822,17.4287582 36.7737195,14.9394817 35.4537169,15.0924066 C34.7419508,15.1773648 33.6074388,16.1841199 32.8956727,16.4857217 C31.25214,17.1781314 29.5395876,17.5222122 27.7623292,17.6581454 C27.5078189,17.6751371 27.3395833,17.3607916 27.4689953,17.1568918 C27.6760545,16.8850254 27.8356627,16.5961674 27.9564472,16.2945657 C24.5615386,18.2655968 20.8603548,19.1958896 16.8787784,18.9580065 C16.5552483,18.9367669 16.3826989,18.4907362 16.7019153,18.3208197 C17.5517209,17.8747889 18.1728986,17.3522957 18.733684,16.5791758 C15.4595599,17.8153182 11.6160229,18.2358614 8.20817304,18.9155274 C6.8709155,19.1831458 5.52934423,19.4210289 4.22659656,19.3827977 C4.28267511,19.3997893 4.33875365,19.4125331 4.39483219,19.4337726 C4.65796996,19.5314746 4.64502876,19.9817533 4.32149871,19.9520179 C3.06188839,19.8373243 2.17325918,20.7888566 2.5054167,22.0292469 C2.76855447,23.0105145 3.71326222,23.5330077 4.60189142,23.8983281 L4.60189142,23.8898323 C4.60620515,23.6816846 4.89953907,23.6944284 4.92110774,23.8898323 C5.53365796,28.7876749 6.00385497,33.7577319 10.4771971,36.8289723 C14.2517144,39.4244465 18.9666256,39.8407419 23.4313403,40.0191542 C28.2713498,40.2145582 33.2019478,40.1805749 36.9031315,36.6335683 C40.4835308,33.2097513 41.5145132,28.2524379 40.9149041,23.5160161 C40.8717668,23.1931748 41.2125518,23.0954728 41.4454934,23.2144143 C41.5533368,23.2696372 41.6396115,23.3715871 41.6568664,23.5160161 C41.9027492,25.3850973 41.8854943,27.2924098 41.566278,29.1317557 C42.1572595,28.3076608 42.4937308,27.4495826 42.6403977,26.3706129 C42.6705939,26.1369778 42.9639278,25.9415738 43.1666733,26.1582173 C43.4384385,26.4513233 44.1717733,22.4497902 44.1847145,22.3393444 C44.2925579,21.2688706 44.322754,20.1856531 44.2839304,19.1066834 C44.2019695,16.8128109 43.7403999,14.5571696 42.1227497,12.8197736 C41.8768668,12.5521552 42.1270634,12.1953306 42.4592209,12.2505534 C42.7870647,12.3057763 43.1192222,12.3567512 43.4513797,12.4119741 C42.7137312,9.06886734 40.496472,6.36294739 37.252544,5.01635929 C37.0282298,4.92290522 36.9290139,4.72325336 37.0368573,4.49811402 C37.2396028,4.07757073 37.446662,3.65277953 37.6494075,3.22798833 C36.0446985,3.35542569 34.5995976,2.90939493 33.3874383,1.8729044 C33.3486147,2.23822484 33.3054774,2.60354527 33.2666538,2.9688657 C33.2364576,3.26197163 32.9690061,3.4276402 32.6929272,3.29595492 Z M37.1748968,37.3557134 C33.3356735,40.8220096 28.3533108,40.898472 23.4313403,40.6903243 C18.5050561,40.4821766 13.2466143,39.9554355 9.295234,36.7567578 C5.5638541,33.7322444 4.56306781,28.8853768 4.59757769,24.3316152 C3.1265944,24.1914341 1.80227806,23.1252082 1.75482699,21.5832161 C1.72031712,20.525486 2.51404417,19.4720038 3.54071286,19.3360707 C2.47090683,19.221377 1.43129694,18.8900399 0.447765588,18.1976302 C0.257961293,18.065945 0.184627815,17.7218641 0.447765588,17.6071705 C1.65129737,17.0804294 2.53129911,16.324301 3.3940459,15.3515292 C3.00580984,15.2963063 2.62188752,15.2368356 2.23365146,15.1731169 C2.09129824,15.1476294 1.98776862,14.9607213 2.0352197,14.8247881 C6.41797343,2.72673472 20.8172175,-3.20335044 32.5678289,2.39964549 C32.6195937,1.96211055 32.6713585,1.52457562 32.7231233,1.08704068 C32.7576332,0.793934754 33.1199868,0.564547505 33.3615559,0.823670138 C34.62548,2.1914978 36.2862676,2.78195757 38.1627419,2.45062044 C38.4819582,2.39539758 38.7105861,2.6842556 38.5725466,2.97736152 C37.6968586,4.7742283 38.2101929,4.49386611 39.68549,5.51336499 C40.4662758,6.05284981 41.1651007,6.69428453 41.7776509,7.41218166 C43.0933398,8.95417371 43.8913806,10.7552884 44.2235381,12.7390633 C44.2709892,13.0066818 44.0725574,13.2063336 43.7964785,13.1596066 C43.593733,13.1256233 43.3909875,13.09164 43.188242,13.0576567 C44.9913828,15.5724206 45.0905987,18.9367669 44.8533433,21.9357928 C44.8015785,22.5729796 44.4478523,27.3986076 43.1537321,26.9100978 C42.8776531,28.1632318 42.3341226,29.1827307 41.4411797,30.1724942 C41.4066698,30.2107254 41.3678462,30.2319649 41.3290226,30.2447087 C40.6690213,32.9251412 39.3317638,35.4101697 37.1748968,37.3557134 L37.1748968,37.3557134 Z" id="Fill-182" fill="#9B9B9B"></path>
                </g>
            </g>
        </g>
    </g>
</svg>