<?xml version="1.0" encoding="UTF-8"?>
<svg width="72px" height="72px" viewBox="0 0 72 72" version="1.1" xmlns="http://www.w3.org/2000/svg" xmlns:xlink="http://www.w3.org/1999/xlink">
    <!-- Generator: Sketch 51.2 (57519) - http://www.bohemiancoding.com/sketch -->
    <title>Coupon</title>
    <desc>Created with Sketch.</desc>
    <defs></defs>
    <g id="Page-1" stroke="none" stroke-width="1" fill="none" fill-rule="evenodd">
        <g id="Artboard" transform="translate(-460.000000, -67.000000)">
            <g id="Coupon" transform="translate(463.000000, 70.000000)">
                <circle id="Oval-2" fill="#FFEBEB" fill-rule="nonzero" cx="33" cy="33" r="33"></circle>
                <g id="Ticket" transform="translate(34.195652, 33.000000) rotate(-65.000000) translate(-34.195652, -33.000000) translate(6.217391, 18.652174)">
                    <g id="Group" transform="translate(16.618079, 13.232818) rotate(-5.000000) translate(-16.618079, -13.232818) translate(1.074600, 1.515427)">
                        <path d="M28.9913367,20.1283961 L28.9913367,19.9031603 C28.9913367,19.3868936 29.3914493,18.9646562 29.8805161,18.9646562 L30.7280624,18.9646562 L30.7280624,16.8622843 L29.8805161,16.8622843 C29.3914493,16.8622843 28.9913367,16.4399191 28.9913367,15.9237802 L28.9913367,15.6985443 C28.9913367,15.1822777 29.3914493,14.7599125 29.8805161,14.7599125 L30.7280624,14.7599125 L30.7280624,12.6576684 L29.8805161,12.6576684 C29.3914493,12.6576684 28.9913367,12.2353032 28.9913367,11.7190366 L28.9913367,11.4938007 C28.9913367,10.9776618 29.3914493,10.5552966 29.8805161,10.5552966 L30.7280624,10.5552966 L30.7280624,8.45305251 L29.8805161,8.45305251 C29.3914493,8.45305251 28.9913367,8.03068734 28.9913367,7.51442066 L28.9913367,7.28918478 C28.9913367,6.77304586 29.3914493,6.35068068 29.8805161,6.35068068 L30.7280624,6.35068068 L30.7280624,4.24830885 L29.8805161,4.24830885 C29.3914493,4.24830885 28.9913367,3.82607144 28.9913367,3.30980475 L28.9913367,3.08456888 C28.9913367,2.56842995 29.3914493,2.14606478 29.8805161,2.14606478 L30.7280624,2.14606478 L30.7280624,0.0436929488 L0.0933111829,0.0436929488 L0.0933111829,2.14606478 L0.946787787,2.14606478 C1.43585457,2.14606478 1.83596711,2.56842995 1.83596711,3.08456888 L1.83596711,3.30980475 C1.83596711,3.82607144 1.43585457,4.24830885 0.946787787,4.24830885 L0.0933111829,4.24830885 L0.0933111829,6.35068068 L0.946787787,6.35068068 C1.43585457,6.35068068 1.83596711,6.77304586 1.83596711,7.28918478 L1.83596711,7.51442066 C1.83596711,8.03068734 1.43585457,8.45305251 0.946787787,8.45305251 L0.0933111829,8.45305251 L0.0933111829,10.5552966 L0.946787787,10.5552966 C1.43585457,10.5552966 1.83596711,10.9776618 1.83596711,11.4938007 L1.83596711,11.7190366 C1.83596711,12.2353032 1.43585457,12.6576684 0.946787787,12.6576684 L0.0933111829,12.6576684 L0.0933111829,14.7599125 L0.946787787,14.7599125 C1.43585457,14.7599125 1.83596711,15.1822777 1.83596711,15.6985443 L1.83596711,15.9237802 C1.83596711,16.4399191 1.43585457,16.8622843 0.946787787,16.8622843 L0.0933111829,16.8622843 L0.0933111829,18.9646562 L0.946787787,18.9646562 C1.43585457,18.9646562 1.83596711,19.3868936 1.83596711,19.9031603 L1.83596711,20.1283961 C1.83596711,20.6445351 1.43585457,21.0669002 0.946787787,21.0669002 L0.0933111829,21.0669002 L0.0933111829,23.1692721 L30.7280624,23.1692721 L30.7280624,21.0669002 L29.8805161,21.0669002 C29.3914493,21.0669002 28.9913367,20.6445351 28.9913367,20.1283961 Z" id="Fill-78" fill="#FBCFCE"></path>
                        <path d="M27.7755078,1.89693832 C27.7755078,1.84647424 27.7561436,1.79715997 27.7223773,1.76138797 C27.6884899,1.72574372 27.6417738,1.70530258 27.5939685,1.70530258 L3.38873297,1.70530258 C3.34092763,1.70530258 3.29421153,1.72574372 3.2603242,1.76138797 C3.22655789,1.79715997 3.20719371,1.84647424 3.20719371,1.89693832 L3.20719371,21.3160267 C3.20719371,21.3664908 3.22655789,21.415805 3.2603242,21.451577 C3.29421153,21.4872213 3.34092763,21.5076624 3.38873297,21.5076624 L27.5939685,21.5076624 C27.6417738,21.5076624 27.6884899,21.4872213 27.7223773,21.451577 C27.7561436,21.415805 27.7755078,21.3664908 27.7755078,21.3160267 L27.7755078,1.89693832 Z" id="Fill-79" fill="#FDDADA"></path>
                        <g transform="translate(7.965469, 6.397090)" fill="#AAAAAA">
                            <polygon id="Fill-89" points="13.0180083 9.86296351 14.0741375 9.86296351 14.0741375 0.0359575085 13.0180083 0.0359575085"></polygon>
                            <polygon id="Fill-90" points="6.81363693 9.86296351 7.86976616 9.86296351 7.86976616 0.0359575085 6.81363693 0.0359575085"></polygon>
                            <polygon id="Fill-91" points="10.1578738 9.86296351 11.214003 9.86296351 11.214003 0.0359575085 10.1578738 0.0359575085"></polygon>
                            <polygon id="Fill-92" points="12.1379868 9.86296351 12.7147968 9.86296351 12.7147968 0.0359575085 12.1379868 0.0359575085"></polygon>
                            <polygon id="Fill-93" points="11.4888966 9.86296351 11.8507325 9.86296351 11.8507325 0.0359575085 11.4888966 0.0359575085"></polygon>
                            <polygon id="Fill-94" points="8.84883211 9.86296351 9.21066803 9.86296351 9.21066803 0.0359575085 8.84883211 0.0359575085"></polygon>
                            <polygon id="Fill-95" points="8.23284292 9.86296351 8.59467884 9.86296351 8.59467884 0.0359575085 8.23284292 0.0359575085"></polygon>
                            <polygon id="Fill-96" points="9.3732763 9.86296351 9.98172328 9.86296351 9.98172328 0.0359575085 9.3732763 0.0359575085"></polygon>
                            <polygon id="Fill-97" points="6.41771776 9.86296351 7.473847 9.86296351 7.473847 0.0359575085 6.41771776 0.0359575085"></polygon>
                            <polygon id="Fill-98" points="0.213346382 9.86296351 1.26921702 9.86296351 1.26921702 0.0359575085 0.213346382 0.0359575085"></polygon>
                            <polygon id="Fill-99" points="3.55758324 9.86296351 4.61345388 9.86296351 4.61345388 0.0359575085 3.55758324 0.0359575085"></polygon>
                            <polygon id="Fill-100" points="5.53769626 9.86296351 6.11450626 9.86296351 6.11450626 0.0359575085 5.53769626 0.0359575085"></polygon>
                            <polygon id="Fill-101" points="4.88860606 9.86296351 5.25044198 9.86296351 5.25044198 0.0359575085 4.88860606 0.0359575085"></polygon>
                            <polygon id="Fill-102" points="2.24828296 9.86296351 2.61040245 9.86296351 2.61040245 0.0359575085 2.24828296 0.0359575085"></polygon>
                            <polygon id="Fill-103" points="1.63229377 9.86296351 1.99412969 9.86296351 1.99412969 0.0359575085 1.63229377 0.0359575085"></polygon>
                            <polygon id="Fill-104" points="2.77298576 9.86296351 3.38143274 9.86296351 3.38143274 0.0359575085 2.77298576 0.0359575085"></polygon>
                        </g>
                    </g>
                    <g id="Group-Copy" transform="translate(43.777084, 14.714063) rotate(15.000000) translate(-43.777084, -14.714063) translate(34.450997, 2.996672)">
                        <path d="M16.888719,20.1283961 L16.888719,19.9031603 C16.888719,19.3868936 17.2888315,18.9646562 17.7778983,18.9646562 L18.6254446,18.9646562 L18.6254446,16.8622843 L17.7778983,16.8622843 C17.2888315,16.8622843 16.888719,16.4399191 16.888719,15.9237802 L16.888719,15.6985443 C16.888719,15.1822777 17.2888315,14.7599125 17.7778983,14.7599125 L18.6254446,14.7599125 L18.6254446,12.6576684 L17.7778983,12.6576684 C17.2888315,12.6576684 16.888719,12.2353032 16.888719,11.7190366 L16.888719,11.4938007 C16.888719,10.9776618 17.2888315,10.5552966 17.7778983,10.5552966 L18.6254446,10.5552966 L18.6254446,8.45305251 L17.7778983,8.45305251 C17.2888315,8.45305251 16.888719,8.03068734 16.888719,7.51442066 L16.888719,7.28918478 C16.888719,6.77304586 17.2888315,6.35068068 17.7778983,6.35068068 L18.6254446,6.35068068 L18.6254446,4.24830885 L17.7778983,4.24830885 C17.2888315,4.24830885 16.888719,3.82607144 16.888719,3.30980475 L16.888719,3.08456888 C16.888719,2.56842995 17.2888315,2.14606478 17.7778983,2.14606478 L18.6254446,2.14606478 L18.6254446,0.0436929488 L0.0933111829,0.0436929488 L0.0933111829,2.14606478 L0.946787787,2.14606478 C1.43585457,2.14606478 1.83596711,2.56842995 1.83596711,3.08456888 L1.83596711,3.30980475 C1.83596711,3.82607144 1.43585457,4.24830885 0.946787787,4.24830885 L0.0933111829,4.24830885 L0.0933111829,6.35068068 L0.946787787,6.35068068 C1.43585457,6.35068068 1.83596711,6.77304586 1.83596711,7.28918478 L1.83596711,7.51442066 C1.83596711,8.03068734 1.43585457,8.45305251 0.946787787,8.45305251 L0.0933111829,8.45305251 L0.0933111829,10.5552966 L0.946787787,10.5552966 C1.43585457,10.5552966 1.83596711,10.9776618 1.83596711,11.4938007 L1.83596711,11.7190366 C1.83596711,12.2353032 1.43585457,12.6576684 0.946787787,12.6576684 L0.0933111829,12.6576684 L0.0933111829,14.7599125 L0.946787787,14.7599125 C1.43585457,14.7599125 1.83596711,15.1822777 1.83596711,15.6985443 L1.83596711,15.9237802 C1.83596711,16.4399191 1.43585457,16.8622843 0.946787787,16.8622843 L0.0933111829,16.8622843 L0.0933111829,18.9646562 L0.946787787,18.9646562 C1.43585457,18.9646562 1.83596711,19.3868936 1.83596711,19.9031603 L1.83596711,20.1283961 C1.83596711,20.6445351 1.43585457,21.0669002 0.946787787,21.0669002 L0.0933111829,21.0669002 L0.0933111829,23.1692721 L18.6254446,23.1692721 L18.6254446,21.0669002 L17.7778983,21.0669002 C17.2888315,21.0669002 16.888719,20.6445351 16.888719,20.1283961 Z" id="Fill-78" fill="#FBCFCE"></path>
                        <path d="M15.4092604,2.77947364 C15.4092604,2.7354191 15.3899887,2.69236833 15.3563837,2.6611398 C15.3226583,2.6300228 15.2761654,2.61217792 15.2285884,2.61217792 L3.18378863,2.61217792 C3.13621167,2.61217792 3.08971874,2.6300228 3.0559933,2.6611398 C3.02238831,2.69236833 3.00311663,2.7354191 3.00311663,2.77947364 L3.00311663,19.7321065 C3.00311663,19.776161 3.02238831,19.8192118 3.0559933,19.8504403 C3.08971874,19.8815573 3.13621167,19.8994022 3.18378863,19.8994022 L15.2285884,19.8994022 C15.2761654,19.8994022 15.3226583,19.8815573 15.3563837,19.8504403 C15.3899887,19.8192118 15.4092604,19.776161 15.4092604,19.7321065 L15.4092604,2.77947364 Z" id="Fill-79" fill="#FDDADA"></path>
                        <path d="M4.11403367,7.99109854 C4.11403367,7.32104596 4.32039225,6.77156032 4.73311562,6.34262514 C5.14583898,5.91368996 5.6872268,5.69922559 6.35729532,5.69922559 C7.03707498,5.69922559 7.58210442,5.91368996 7.9924,6.34262514 C8.40269558,6.77156032 8.60784029,7.33373616 8.60784029,8.02916952 L8.60784029,8.57739162 C8.60784029,9.24236805 8.40269558,9.78804663 7.9924,10.2144437 C7.58210442,10.6408408 7.04193048,10.8540362 6.37186196,10.8540362 C5.71636014,10.8540362 5.1761862,10.6446479 4.75132391,10.225865 C4.32646162,9.80708216 4.11403367,9.24236828 4.11403367,8.53170645 L4.11403367,7.99109854 Z M5.35219757,8.57739162 C5.35219757,8.92764638 5.44566587,9.21063783 5.63260527,9.42637446 C5.81954468,9.64211109 6.06596111,9.74997778 6.37186196,9.74997778 C6.67290723,9.74997778 6.91568204,9.64211109 7.10019366,9.42637446 C7.28470528,9.21063783 7.37695971,8.91749422 7.37695971,8.54693484 L7.37695971,7.99109854 C7.37695971,7.64084378 7.28349141,7.35658331 7.096552,7.13830861 C6.9096126,6.9200339 6.66319617,6.81089819 6.35729532,6.81089819 C6.05139448,6.81089819 5.80740579,6.92130292 5.62532196,7.14211571 C5.44323812,7.36292849 5.35219757,7.65353406 5.35219757,8.01394113 L5.35219757,8.57739162 Z M9.21235561,14.2271249 C9.21235561,13.54692 9.42356969,12.9961654 9.84600419,12.5748444 C10.2684387,12.1535235 10.8073988,11.9428662 11.4629006,11.9428662 C12.123258,11.9428662 12.6634319,12.1535235 13.0834386,12.5748444 C13.5034453,12.9961654 13.7134456,13.5646863 13.7134456,14.2804243 L13.7134456,14.8210322 C13.7134456,15.4809325 13.5107286,16.0253421 13.1052886,16.4542772 C12.6998486,16.8832124 12.1572469,17.0976768 11.4774672,17.0976768 C10.7976876,17.0976768 10.2502304,16.8857504 9.83507922,16.4618914 C9.41992807,16.0380324 9.21235561,15.4783946 9.21235561,14.7829612 L9.21235561,14.2271249 Z M10.4505195,14.8210322 C10.4505195,15.1662108 10.5464156,15.4492023 10.7382105,15.6700151 C10.9300055,15.8908278 11.1764219,16.0012326 11.4774672,16.0012326 C11.7882236,16.0012326 12.0322123,15.8959039 12.2094406,15.6852434 C12.3866688,15.474583 12.4752817,15.1789013 12.4752817,14.7981896 L12.4752817,14.2271249 C12.4752817,13.871794 12.3805995,13.5875336 12.1912323,13.374335 C12.0018651,13.1611365 11.7590903,13.0545388 11.4629006,13.0545388 C11.1618553,13.0545388 10.9178666,13.1611365 10.7309272,13.374335 C10.5439878,13.5875336 10.4505195,13.8819462 10.4505195,14.2575817 L10.4505195,14.8210322 Z M6.73602781,16.1154455 L5.82561318,15.5672234 L11.0040516,6.90226854 L11.9144662,7.45049064 L6.73602781,16.1154455 Z" id="%-copy" fill="#AAAAAA"></path>
                    </g>
                </g>
            </g>
        </g>
    </g>
</svg>