<?xml version="1.0" encoding="UTF-8"?>
<svg width="72px" height="72px" viewBox="0 0 72 72" version="1.1" xmlns="http://www.w3.org/2000/svg" xmlns:xlink="http://www.w3.org/1999/xlink">
    <!-- Generator: Sketch 51.2 (57519) - http://www.bohemiancoding.com/sketch -->
    <title>Deduct</title>
    <desc>Created with Sketch.</desc>
    <defs></defs>
    <g id="Page-1" stroke="none" stroke-width="1" fill="none" fill-rule="evenodd">
        <g id="Artboard" transform="translate(-250.000000, -318.000000)">
            <g id="Deduct" transform="translate(253.000000, 321.000000)">
                <circle id="Oval-5" fill="#FFEBEB" cx="33" cy="33" r="33"></circle>
                <path d="M47.5878076,11.049746 C49.905049,14.5475378 50.2360835,18.0453296 48.7464283,22.375929 L39.9740145,34.8680426 L37.1602214,29.5380741 L47.5878076,11.049746 Z M36.3326352,34.2017965 C36.9947042,34.2017965 37.6567731,34.8680426 37.6567731,35.7008501 C37.6567731,36.5336577 36.9947042,37.1999038 36.3326352,37.1999038 C35.505049,37.1999038 34.84298,36.5336577 34.84298,35.7008501 C34.84298,34.8680426 35.505049,34.2017965 36.3326352,34.2017965 Z M26.4016007,38.0327113 C28.5533248,38.0327113 30.3740145,39.1986419 31.5326352,40.8642571 L33.0222904,37.5330268 L35.6705662,41.1973801 C33.0222904,45.0282949 31.2016007,50.6913864 26.4016007,50.6913864 C17.9602214,50.6913864 17.9602214,38.0327113 26.4016007,38.0327113 Z M46.2636697,38.0327113 C54.5395317,38.0327113 54.5395317,50.6913864 46.2636697,50.6913864 C42.9533248,50.6913864 40.8016007,47.1935946 38.4843593,43.6958028 L24.0843593,22.375929 C22.5947042,18.0453296 22.9257386,14.5475378 25.24298,11.049746 L41.6291869,40.198011 C42.7878076,38.8655189 44.44298,38.0327113 46.2636697,38.0327113 Z M46.2636697,41.1973801 C50.4016007,41.1973801 50.4016007,47.5267176 46.2636697,47.5267176 C41.9602214,47.5267176 41.9602214,41.1973801 46.2636697,41.1973801 Z M26.4016007,41.1973801 C30.5395317,41.1973801 30.5395317,47.5267176 26.4016007,47.5267176 C22.0981524,47.5267176 22.0981524,41.1973801 26.4016007,41.1973801 Z" id="Shape" fill="#FEBBBA" transform="translate(36.270566, 30.870566) rotate(45.000000) translate(-36.270566, -30.870566) "></path>
            </g>
        </g>
    </g>
</svg>