<svg width="500" height="500" viewBox="0 0 500 500" xmlns="http://www.w3.org/2000/svg"><title>Logo</title><g fill="none" fill-rule="evenodd"><circle fill="#EF5350" cx="250" cy="250" r="250"/><path fill="#000" d="M145 311h212v135H145z"/><path d="M250.543 490.543c88.366 0 160-71.634 160-160 0-88.365-71.634-160-160-160-88.365 0-160 71.635-160 160 0 88.366 71.635 160 160 160zM341.23 324.86a237.717 237.717 0 0 1-4.403 2.318c-1.701.806-3.303 1.612-5.004 2.216-1.701.706-3.502 1.411-5.104 1.915-1.901.605-5.704 1.814-7.105 2.217-12.81 3.325-22.017 4.736-30.223 5.945-15.312 2.217-29.422 2.52-36.628 2.62h-5.104c-7.205-.1-21.316-.403-36.628-2.62-8.206-1.209-17.413-2.62-30.222-5.945-1.402-.403-5.204-1.612-7.106-2.217-1.601-.504-3.402-1.21-5.104-1.915-1.701-.604-3.302-1.41-5.004-2.216a248.5 248.5 0 0 1-4.403-2.318c-.6-.302-2.802-1.612-3.903-.1-1.3 1.813 2.202 3.93 2.602 4.231 1.101.807 8.006 4.535 18.814 7.659 6.505 1.915 14.211 3.728 22.217 5.14 17.914 3.022 33.526 4.231 48.737 4.332h5.004c15.212-.1 30.824-1.209 48.737-4.333 8.006-1.41 15.812-3.224 22.217-5.14 10.808-3.123 17.713-6.851 18.814-7.658.4-.302 3.903-2.519 2.702-4.232-1.1-1.612-3.402-.201-3.903.1z" fill="#EF5350"/><path d="M148.214 88.046c11.786-7.14 12.721-7.14 12.721-7.14s43.5-24.939 92.643-23.593c49.245 1.345 84.845 22.04 84.845 22.04s20.826 11.9 31.701 30.63c0 0 5.848 6.934 7.387 30.63 1.539 23.594 6.156 94.891 6.156 94.891s4.284 51.19 2.987 51.628c-1.858.625-4.314-.396-6.27-2.579-6.772-7.657-18.057-15.625-36.319-26.077-18.261-10.451-57.657-20.799-100.336-19.557-42.68 1.242-68.328 11.693-90.693 22.558-22.366 10.866-37.587 28.736-39.089 25.713-1.5-3.023 7.695-113.774 7.695-113.774l2.36-42.84s3.583-30.033 24.212-42.53z" fill="#F0B200"/><path d="M131.957 132.073s3.455-27.693 22.647-39.383c19.193-11.69 11.9-6.612 11.9-6.612s40.689-23.093 86.655-21.847c46.063 1.246 80.417 19.37 80.417 19.37s18.868 9.843 29.04 27.187c2.378 0 5.028 8.636 6.467 30.58 1.44 21.847 7.085 89.819 7.085 89.819l3.872 48.548s-1.936 1.916-8.27-5.079c-6.333-7.09-16.89-14.47-33.971-24.147-17.082-9.678-53.932-19.26-93.852-18.11-39.921 1.15-63.912 10.827-84.832 20.889-20.92 10.061-36.562 26.447-36.562 26.447l7.197-107.992 2.207-39.67z" fill="#000"/><path fill="#000" d="M137.448 150.283h229v158h-229z"/><path d="M127.858 288.728s-7.306 48.47 31.224 77.995c0 0 30.323 24.89 35.326 40.711l2.803 23.379s3.002 20.657 16.412 13.503c0 0 7.005-6.047 7.806-10.581.8-4.535 4.804-15.418 4.804-15.418s5.104-11.185 11.508-5.24l2.702 10.883 1.902 9.573 2.702 6.55s2.902 3.628 3.503 3.527c.6-.1 5.904 1.512 5.904 1.512l6.505-.504 5.904-7.86 2.102-9.573s.6-5.946.8-6.55c.2-.605 2.202-5.442 2.202-5.442l2.903-3.224 6.204.302 3.203 6.852 3.002 11.992 1.401 5.744s1.701 2.72 2.102 3.224c.3.504 2.201 2.923 2.702 3.527.5.504 3.302 1.512 3.302 1.512l3.803.705s2.902-.604 3.703-1.209c.8-.605 3.002-3.225 3.002-3.225s2.402-4.534 2.502-5.945c.2-1.41 1-5.945 1-6.45 0-.503.201-3.325 0-4.836-.2-1.411.601-3.729.1-5.14-.5-1.41.301-5.24.201-6.046-.1-.806.5-2.922.8-4.333.3-1.41.601-2.519 1.101-3.527.5-1.007 2.102-4.635 2.202-5.139.2-.504 1.401-3.023 1.902-3.325.5-.303 2.502-2.721 2.502-2.721l32.424-31.54s15.112-19.752 17.814-29.829c2.702-10.077 9.707-30.432 6.204-48.168.1 0-65.95-39.703-103.278-37.083 0 0-77.86-14.712-144.91 41.417zm89.768-18.441c5.204 0 9.107 4.333 9.107 10.782 0 6.45-3.803 12.193-9.007 12.193s-8.807-5.744-8.807-12.193c.1-6.45 3.503-10.782 8.707-10.782zm66.95-.303c5.205 0 9.108 4.334 9.108 10.783s-3.803 12.193-9.007 12.193-8.807-5.744-8.807-12.193c0-6.45 3.403-10.783 8.707-10.783zm41.633 51.594c-13.21 4.636-22.317 7.457-34.927 9.17-32.325 4.535-64.95 4.031-96.974-2.216-7.906-1.512-15.311-4.132-23.918-7.659-2.502-1.008-5.604-2.62-8.206-3.628-3.903-1.612-11.509-3.728-13.21 3.427-.8 3.123 0 6.449 1.901 8.968 2.502 3.325 8.107 8.263 18.514 12.294 19.415 7.457 44.935 13.604 80.361 13.604 36.428 0 59.946-5.543 80.261-13.1 9.708-3.628 16.113-9.271 18.615-12.596 1.901-2.52 2.702-5.644 2.101-8.767-1.4-7.155-8.807-5.442-12.91-3.83-2.902 1.109-8.606 3.326-11.608 4.333z" fill="#FFF"/><path d="M162.835 83.027s42.432-24.286 90.368-22.976c48.037 1.31 82.763 21.464 82.763 21.464s20.316 11.589 30.924 29.828c0 0 5.704 6.751 7.205 29.828 1.501 22.975 6.005 92.405 6.005 92.405l3.402 51.653c-3.612-4.663-24.218-19.104-42.032-29.282-17.813-10.178-56.242-20.255-97.874-19.045-41.632 1.209-66.65 11.387-88.467 21.967C133.312 269.45 117 285.733 117 285.733l7.506-112.618 2.301-41.72s3.603-29.121 23.618-41.415c20.016-12.294 12.41-6.953 12.41-6.953zm-34.926 176.85c.3-1.188-1.981-1.352-2.137-.09-.78 6.31-.943 12.6-1.08 18.988-.038 1.239 2.309 1.185 2.229-.03-.073-6.244.326-12.582.988-18.868zm1.804-27.024c.321-1.182-1.957-1.386-2.135-.127-.89 6.295-1.162 12.582-1.41 18.966-.06 1.238 2.287 1.225 2.228.008.036-6.244.546-12.573 1.317-18.847zm1.6-27c.321-1.182-1.957-1.386-2.135-.127-.89 6.295-1.162 12.582-1.41 18.966-.06 1.238 2.287 1.225 2.228.008.036-6.244.546-12.573 1.317-18.847zm1.9-27c.321-1.182-1.957-1.386-2.135-.127-.89 6.295-1.162 12.582-1.41 18.966-.06 1.238 2.287 1.225 2.228.008.036-6.244.546-12.573 1.317-18.847zm1.257-27.085c.3-1.188-1.98-1.352-2.137-.09-.779 6.31-.942 12.6-1.08 18.988-.037 1.238 2.31 1.184 2.23-.031-.073-6.244.326-12.581.987-18.867zm4.08-28.213c.451-1.144-1.792-1.571-2.11-.337-1.586 6.171-2.559 12.395-3.518 18.718-.197 1.225 2.14 1.443 2.216.228.733-6.205 1.946-12.447 3.412-18.609zm3.795-7.817c-.578 1.02-2.17.1-1.59-.921 2.87-4.81 7.13-10.717 10.644-15.12.854-.8 2.856.93 1.449 1.621-3.111 3.875-5.878 7.698-10.503 14.42zm32.194-28.843c1.136-.44.126-2.236-.998-1.646-5.621 2.95-10.917 6.35-16.28 9.825-1.045.665.179 2.387 1.145 1.646 5.139-3.55 10.591-6.8 16.133-9.825zm26.72-10.672c1.2-.212.68-2.2-.547-1.837-6.13 1.814-12.06 4.14-18.074 6.526-1.17.453-.425 2.41.688 1.866 5.817-2.506 11.86-4.65 17.934-6.555zm28.574-8.1l-.505.074-.505.074-.504.074-.505.074-.505.074-.504.073-.505.074-.505.074-.504.074-.505.074-.505.073-.505.074-.504.074-.505.074-.505.074-.504.074-.505.073-.505.074-.504.074-.505.074-.505.074-.504.073-.505.074-.505.074-.504.074-.505.074-.505.073-.504.074-.505.074-.505.074-.505.074-.504.073-.505.074-.505.074-.504.074-.406.08c-1.215.243-.954 2.225.261 1.983l.406-.081.504-.074.505-.074.505-.074.504-.073.505-.074.505-.074.505-.074.504-.074.505-.073.505-.074.504-.074.505-.074.505-.074.504-.073.505-.074.505-.074.504-.074.505-.074.505-.073.504-.074.505-.074.505-.074.504-.074.505-.074.505-.073.505-.074.504-.074.505-.074.505-.074.504-.073.505-.074.505-.074.504-.074.505-.074.505-.073.405-.081.405-.08.406-.082c1.3-.018 1.138-1.993-.063-1.968l-.405.081-.505.074-.504.074zm30.394.208c1.176.151 1.115-1.905-.12-1.92-6.167-.078-12.258.394-18.44.899-1.199.088-.92 2.18.245 1.99 6.023-.678 12.18-.943 18.315-.97zm27.76 3.72c1.125.373 1.457-1.658.25-1.908-6.041-1.253-12.11-1.952-18.274-2.636-1.194-.143-1.32 1.965-.14 2 6.042.483 12.137 1.398 18.164 2.543zm27.754 8.767c1.076.582 1.741-1.355.562-1.832-5.895-2.384-11.909-4.227-18.022-6.074-1.183-.368-1.653 1.684-.466 1.944 6.02 1.626 12.027 3.687 17.926 5.962zm24.062 13.977c.995.576 2.06-.94 1.081-1.613a176.509 176.509 0 0 0-15.782-9.997c-.995-.576-1.963.956-.888 1.647a183.524 183.524 0 0 1 15.589 9.963zm19.397 19.579c-3.076-5.22-6.604-9.824-10.88-14.451-.86-.857-2.206.119-1.416 1.157 4.22 4.34 6.741 8.933 10.595 13.782.583 1.015 2.219.413 1.7-.488zm1.088 9.106c-.447-1.156 1.798-1.518 2.111-.275 1.566 6.216 2.517 12.466 3.454 18.815.193 1.23-2.145 1.38-2.218.164-.71-6.225-1.902-12.5-3.347-18.704zm4.8 25.266c-.34-1.176 1.934-1.42 2.133-.164 1 6.279 1.382 12.56 1.742 18.939.081 1.236-2.266 1.264-2.228.047-.145-6.243-.766-12.562-1.646-18.822zm2.107 26.971c-.297-1.186 1.985-1.356 2.137-.095.759 6.301.902 12.585 1.018 18.967.034 1.237-2.313 1.19-2.229-.025.093-6.238-.285-12.568-.926-18.847zm1.88 26.585c-.317-1.18 1.962-1.39 2.136-.132.869 6.287 1.12 12.568 1.348 18.946.056 1.237-2.291 1.23-2.229.014-.015-6.238-.504-12.56-1.255-18.828zm1.921 26.169c-.32-1.183 1.957-1.387 2.135-.127.89 6.295 1.163 12.581 1.411 18.966.06 1.238-2.287 1.224-2.229.008-.036-6.244-.546-12.573-1.317-18.847zm2.256 26.75c-.3-1.187 1.981-1.351 2.137-.09.78 6.31.943 12.601 1.08 18.989.038 1.239-2.309 1.184-2.229-.031.073-6.244-.327-12.58-.988-18.867z" fill="#F7D917"/><path d="M268.68 246.415s57.29 3.36 101.502 39.487h15.472s-8.103-11.762-42.352-31.61c-25.531-13.233-58.95-20.269-98.908-19.639-48.364.63-80.33 15.648-100.671 26.99-18.578 10.396-27.615 22.368-29.275 24.259l15.783-.105 10.897-7.561c38.4-26.255 85.104-36.231 127.552-31.82z" fill="#F0B200"/><path d="M249.05 251.04c-36.828 0-73.356 10.984-102.678 31.037l-10.608 7.255s-.6.101-2.102 0c-2.201-.1-6.905-.201-13.81-1.108-4.95-.303-2.651-2.058-2.651-2.058l1.251-.663c1.902-2.217 13.334-11.426 31.548-21.503 21.516-11.89 47.765-25.496 94-26h5.05c36.428 0 66.231 5.202 90.95 18 33.525 19.247 42.351 29.604 42.751 30.007l.801 1.108s-1.2.605-2.902.806c-8.807 1.21-13.01 1.411-14.811 1.512-1.101-.202-1.301-.202-1.301-.202-41.432-33.657-96.273-37.284-96.774-37.284a193.875 193.875 0 0 0-18.714-.907z" fill="#898989"/><path d="M152.276 357.755l22.618 21.766c.2.201 8.706 8.968 8.906 9.17 11.209 11.89 13.71 23.177 14.011 28.316.6 12.395 1.1 21.363 5.905 25.193 2.301 1.813 7.605 2.72 11.308-1.814 5.704-7.054 9.207-20.457 9.908-22.875.9-3.325 2.902-8.062 8.906-7.96 6.505.1 7.306 6.146 8.006 9.572 0 .202 1.201 10.077 1.201 10.077s1.201 12.798 8.407 14.209c0 0 4.903 1.108 8.506-1.411 3.303-1.713 6.105-8.162 6.705-15.015 1.101-8.364 1.702-11.084 1.902-11.588.4-1.008 2.702-6.953 10.007-5.643 6.605 1.209 7.806 11.084 7.806 11.689 0 0 1.902 13.906 7.406 19.65 1.601 1.612 4.103 2.822 6.004 2.62 11.51-.705 8.407-20.154 9.007-28.82.6-8.465 2.903-15.216 11.309-24.084 7.906-8.263 15.612-15.518 19.214-18.945 11.51-10.48 25.12-29.021 29.223-40.509 0-.1 2.301-5.542 4.503-15.82 1.701-8.365 2.702-17.837 2.502-27.31a5.798 5.798 0 0 0-.407-1.64c-.262-.657-6.648.1-7.139-.583-5.285-7.347-40-24-40-24s-43.323-16.605-68.042-16c-27.52.806-50.638.714-71.154 7.567C171.968 259.162 159 267 141 277c-18 10-4.64 3.307-8 6l-2.74.62c-1.301 8.06-1.501 44.61 15.211 65.872 1.602 2.015 6.605 8.061 6.805 8.263zM127 287c.036-.394-2.4.154-3 0-1.186-.304-1-1.041-1-1.05l3-3.95c1.731-1.395 3.288-2.72 5-4 18.574-13.888 37.553-20.88 56.703-27.247 9.71-3.228 19.457-6.279 30.297-7.753 12.51-1.702 26.352-1.598 41.258-2.03 18.904-.528 38.162 2.185 55.742 8.03 5.872 1.953 11.587 5.906 17 8 26.72 10.38 46.448 23.263 47.249 32.735 1.1 13-5.104 39.502-7.306 43.633-3.602 10.783-16.112 27.41-23.217 34.967-8.607 9.17-25.62 22.472-32.525 33.859 0 0-3.803 6.953-3.803 18.34.4 10.984-.9 17.13-1.401 18.743-.7 2.016-3.903 8.868-11.409 8.566-2.602-.101-5.804-.504-8.106-2.62-6.605-5.442-8.807-21.767-8.807-21.767 0-.1-1-10.077-5.804-10.077-4.203 0-4.603 3.93-4.904 4.434 0 0-.1.202-.2.605-.1.403-.5 1.915-1.601 10.58-.5 5.442-2.202 8.868-3.703 11.79-1.1 2.218-6.205 7.055-12.61 6.853-14.11-.504-14.91-16.224-14.91-16.325 0 0-1.001-10.983-1.001-11.084 0 0-.2-6.651-4.304-6.953-4.103-.403-5.304 5.34-5.304 5.441-.3.907-4.503 17.333-8.206 22.472-2.102 2.821-4.904 5.14-8.306 6.046-6.605 1.915-10.809-1.814-10.809-1.814s-7.305-4.434-6.805-26.905c-.8-18.34-16.112-30.836-16.112-30.836l-26.42-25.696-7.806-8.767-.8-.806C124.291 326.91 126.255 295.035 127 287z" fill="#1F1A17"/><path d="M268.593 248.764s55.799 3.27 98.862 38.417h17.993s-10.816-11.443-44.175-30.754c-24.867-12.873-57.416-19.719-96.334-19.106-47.106.613-78.24 15.224-98.054 26.258-18.094 10.115-29.82 21.865-31.437 23.704l18.296-.204 10.614-7.357c37.402-25.543 82.89-35.249 124.235-30.958zm8.505-5.743c-6.491-1.213-12.642-1.562-19.204-1.268-1.25.114-1.04 2.038.155 1.84 6.002-.766 12.713.055 18.62 1.297 1.254.249 1.544-1.648.43-1.87zm28.948 5.545c-6.26-2.104-12.302-3.306-18.84-3.928-1.255-.061-1.314 1.873-.103 1.844 6.05.076 12.58 1.824 18.258 3.876 1.207.42 1.758-1.418.685-1.792zm26.337 11.694c1.056.603 1.959-1.05.902-1.652-5.104-2.769-12.105-6.276-17.875-7.066-1.18-.264-1.603 1.538-.423 1.801 5.24 1.424 10.039 2.92 15.8 6.084.54.23 1.057.602 1.596.833zm24.221 13.255c.95.76 2.1-.73 1.15-1.49-4.608-3.533-10.975-8.093-16.55-9.776-1.125-.445-1.824 1.269-.7 1.713 4.954 2.227 9.46 4.455 14.655 8.48.496.313.949.76 1.445 1.073zm18.01 10.16C367 278.497 370 280 364 277c-1.1-.605-2.6.993-1.499 1.497 5.499 3.075 5.93 3.503 10.711 7.488.9.907 2.202-1.504 1.401-2.31zm-126.848-42.15c-5.65-.3-11.172.022-17.205.871-1.162.207-1.378 1.648-.136 1.58 5.797-.949 10.646-.55 16.554-.989 1.088.069 1.754-1.4.787-1.461zm-28.125 1.783c-6.574.624-12.582 1.983-18.81 4.074-1.17.455-.437 2.246.657 1.727 5.558-2.391 12.235-3.451 18.256-3.886 1.274-.107 1.03-2.01-.103-1.915zm-27.5 6.247c-6.424 1.532-12.184 3.715-18.06 6.652-1.096.613-.12 2.285.89 1.619 5.171-3.142 11.636-5.12 17.538-6.389 1.246-.283.74-2.134-.368-1.882zm-25.437 11.755c1.141-.421.456-2.175-.685-1.753-5.402 2.13-12.59 5.24-16.903 9.151-.961.736.148 2.218 1.108 1.482 4.46-3.099 8.69-5.813 14.816-8.193.524-.265 1.14-.422 1.664-.687zm-22.98 13.206c1.061-.595.11-2.22-.95-1.624-5.003 2.949-11.615 7.144-15.265 11.682-.833.877.493 2.167 1.327 1.29 3.92-3.758 7.674-7.1 13.352-10.41.476-.343 1.06-.595 1.537-.938z" fill="#FFF"/></g></svg>