<svg xmlns="http://www.w3.org/2000/svg" width="24" height="24" viewBox="0 0 24 24">
  <g fill="none">
    <circle cx="12" cy="12" r="12" fill="#EF5350"/>
    <g transform="translate(3.871 5.42)">
      <path fill="#FFF" d="M13.9355522,13.5464764 L2.27911765,13.5464764 C1.60357116,13.5464764 1.05593738,13.0159471 1.05593738,12.3615715 L1.05593738,5.71707196 C1.05593738,5.06269644 1.60363093,4.53222498 2.27911765,4.53222498 L13.9354924,4.53222498 C14.6110389,4.53222498 15.1586727,5.06275434 15.1586727,5.71707196 L15.1586727,12.3615715 C15.1586727,13.0160629 14.6110987,13.5464764 13.9355522,13.5464764 Z M13.9355522,13.5464764 L2.27911765,13.5464764 C1.60357116,13.5464764 1.05593738,13.0159471 1.05593738,12.3615715 L1.05593738,5.71707196 C1.05593738,5.06269644 1.60363093,4.53222498 2.27911765,4.53222498 L13.9354924,4.53222498 C14.6110389,4.53222498 15.1586727,5.06275434 15.1586727,5.71707196 L15.1586727,12.3615715 C15.1586727,13.0160629 14.6110987,13.5464764 13.9355522,13.5464764 Z"/>
      <path fill="#0A0B09" d="M13.9355522,13.400135 C14.5313172,13.400135 15.0123312,12.934164 15.0123312,12.3615715 L15.0123312,5.71707196 C15.0123312,5.14461643 14.5312194,4.67856644 13.9354924,4.67856644 L2.27911765,4.67856644 C1.68340704,4.67856644 1.20227884,5.14460081 1.20227884,5.71707196 L1.20227884,12.3615715 C1.20227884,12.9340772 1.6833825,13.400135 2.27911765,13.400135 L13.9355522,13.400135 Z M13.9355522,13.6928179 L2.27911765,13.6928179 C1.52378261,13.6928179 0.909595918,13.097839 0.909595918,12.3615715 L0.909595918,5.71707196 C0.909595918,4.98083207 1.52381354,4.38588352 2.27911765,4.38588352 L13.9354924,4.38588352 C14.6908171,4.38588352 15.3050141,4.98085226 15.3050141,5.71707196 L15.3050141,12.3615715 C15.3050141,13.0979259 14.6909171,13.6928179 13.9355522,13.6928179 Z"/>
      <path fill="#F3D629" d="M15.1755285,0.907626137 C15.0387694,0.375417701 14.5454089,0.00185277088 13.979186,0.00185277088 L7.60363378,0.00185277088 L2.32173529,0.00185277088 C1.75993548,0.00185277088 1.26926471,0.36974359 1.1283814,0.896451613 L0.0439924099,4.95043011 L0.0439924099,4.95043011 C0.0439924099,6.02822167 0.946016129,6.90197684 2.05867742,6.90197684 C3.17133871,6.90197684 4.07336243,6.02822167 4.07336243,4.95043011 L4.08920209,4.95043011 C4.08920209,6.02822167 4.99122581,6.90197684 6.1038871,6.90197684 C7.21654839,6.90197684 8.11857211,6.02822167 8.11857211,4.95043011 L8.13441176,4.95043011 C8.13441176,6.02822167 9.03643548,6.90197684 10.1490968,6.90197684 C11.2617581,6.90197684 12.1637818,6.02822167 12.1637818,4.95043011 L12.1796812,4.95043011 C12.1796812,6.02822167 13.0817049,6.90197684 14.1943662,6.90197684 C15.3070275,6.90197684 16.2090512,6.02822167 16.2090512,4.95043011 L16.2140123,4.95043011 L15.1755285,0.907626137 Z"/>
      <path fill="#FEE126" d="M15.1755285,0.907626137 C15.0387694,0.375417701 14.5454089,0.00185277088 13.979186,0.00185277088 L7.60363378,0.00185277088 L2.32173529,0.00185277088 C1.75993548,0.00185277088 1.26926471,0.36974359 1.1283814,0.896451613 L0.0439924099,4.95043011 L0.0439924099,4.95043011 C0.0439924099,6.02822167 0.946016129,6.90197684 2.05867742,6.90197684 C3.17133871,6.90197684 4.07336243,6.02822167 4.07336243,4.95043011 L4.08920209,4.95043011 C4.08920209,6.02822167 4.99122581,6.90197684 6.1038871,6.90197684 C7.21654839,6.90197684 8.11857211,6.02822167 8.11857211,4.95043011 L8.13441176,4.95043011 C8.13441176,6.02822167 9.03643548,6.90197684 10.1490968,6.90197684 C11.2617581,6.90197684 12.1637818,6.02822167 12.1637818,4.95043011 L12.1796812,4.95043011 C12.1796812,6.02822167 13.0817049,6.90197684 14.1943662,6.90197684 C15.3070275,6.90197684 16.2090512,6.02822167 16.2090512,4.95043011 L16.2140123,4.95043011 L15.1755285,0.907626137 Z"/>
      <path fill="#FCED33" d="M4.0734222,4.95043011 C4.0734222,6.02822167 3.17139848,6.90197684 2.05873719,6.90197684 C0.946075901,6.90197684 0.0440521822,6.02822167 0.0440521822,4.95043011 L4.0734222,4.95043011 L4.0734222,4.95043011 Z"/>
      <path fill="#FEE126" d="M8.11863188,4.95043011 C8.11863188,6.02822167 7.21660816,6.90197684 6.10394687,6.90197684 C4.99128558,6.90197684 4.08926186,6.02822167 4.08926186,4.95043011 L8.11863188,4.95043011 L8.11863188,4.95043011 Z"/>
      <path fill="#FCED33" d="M12.1638416,4.95043011 C12.1638416,6.02822167 11.2618178,6.90197684 10.1491565,6.90197684 C9.03649526,6.90197684 8.13447154,6.02822167 8.13447154,4.95043011 L12.1638416,4.95043011 L12.1638416,4.95043011 Z"/>
      <path fill="#FEE126" d="M16.2090512,4.95043011 C16.2090512,6.02822167 15.3070275,6.90197684 14.1943662,6.90197684 C13.0817049,6.90197684 12.1796812,6.02822167 12.1796812,4.95043011 L16.2090512,4.95043011 L16.2090512,4.95043011 Z"/>
      <path fill="#FCED33" d="M2.32179507,0.00191066998 C1.75999526,0.00191066998 1.26932448,0.369801489 1.12844118,0.896509512 L0.0440521822,4.95048801 L4.0734222,4.95048801 L4.72248956,0.00185277088 L2.32179507,0.00191066998 L2.32179507,0.00191066998 Z"/>
      <polygon fill="#FCED33" points="8.107 .002 8.107 4.95 12.141 4.95 11.492 .002"/>
    </g>
  </g>
</svg>
