<?xml version="1.0" encoding="UTF-8"?>
<svg width="72px" height="72px" viewBox="0 0 72 72" version="1.1" xmlns="http://www.w3.org/2000/svg" xmlns:xlink="http://www.w3.org/1999/xlink">
    <!-- Generator: Sketch 50.2 (55047) - http://www.bohemiancoding.com/sketch -->
    <title>Merchant</title>
    <desc>Created with Sketch.</desc>
    <defs></defs>
    <g id="Page-1" stroke="none" stroke-width="1" fill="none" fill-rule="evenodd">
        <rect id="Rectangle-3" stroke="#979797" fill="#FFFFFF" x="-780.5" y="-813.5" width="1248" height="1217"></rect>
        <g id="Merchant" transform="translate(2.000000, 6.000000)" fill-rule="nonzero">
            <path d="M58.286,59.7367607 L9.5325,59.7367607 C6.707,59.7367607 4.4165,57.3825802 4.4165,54.4788427 L4.4165,24.9944218 C4.4165,22.0906842 6.70725,19.7367607 9.5325,19.7367607 L58.28575,19.7367607 C61.11125,19.7367607 63.40175,22.0909411 63.40175,24.9944218 L63.40175,54.4788427 C63.40175,57.3830941 61.1115,59.7367607 58.286,59.7367607 Z" id="Shape" fill="#F1F1F1"></path>
            <path d="M63.47225,3.95249573 C62.90025,1.6348547 60.83675,0.00806837607 58.4685,0.00806837607 L31.8025,0.00806837607 L9.71075,0.00806837607 C7.361,0.00806837607 5.30875,1.6101453 4.7195,3.90383333 L0.184,21.5579444 L0.184,21.5579444 C0.184,26.2514701 3.95675,30.0564658 8.6105,30.0564658 C13.26425,30.0564658 17.037,26.2514701 17.037,21.5579444 L17.10325,21.5579444 C17.10325,26.2514701 20.876,30.0564658 25.52975,30.0564658 C30.1835,30.0564658 33.95625,26.2514701 33.95625,21.5579444 L34.0225,21.5579444 C34.0225,26.2514701 37.79525,30.0564658 42.449,30.0564658 C47.10275,30.0564658 50.8755,26.2514701 50.8755,21.5579444 L50.942,21.5579444 C50.942,26.2514701 54.71475,30.0564658 59.3685,30.0564658 C64.02225,30.0564658 67.795,26.2514701 67.795,21.5579444 L67.81575,21.5579444 L63.47225,3.95249573 Z" id="Shape" fill="#FEBBBA"></path>
            <path d="M17.03725,21.5579444 C17.03725,26.2514701 13.2645,30.0564658 8.61075,30.0564658 C3.957,30.0564658 0.18425,26.2514701 0.18425,21.5579444 L17.03725,21.5579444 L17.03725,21.5579444 Z" id="Shape" fill="#FDDADA"></path>
            <path d="M33.9565,21.5579444 C33.9565,26.2514701 30.18375,30.0564658 25.53,30.0564658 C20.87625,30.0564658 17.1035,26.2514701 17.1035,21.5579444 L33.9565,21.5579444 L33.9565,21.5579444 Z" id="Shape" fill="#FEBBBA"></path>
            <path d="M50.87575,21.5579444 C50.87575,26.2514701 47.103,30.0564658 42.44925,30.0564658 C37.7955,30.0564658 34.02275,26.2514701 34.02275,21.5579444 L50.87575,21.5579444 L50.87575,21.5579444 Z" id="Shape" fill="#FDDADA"></path>
            <path d="M67.795,21.5579444 C67.795,26.2514701 64.02225,30.0564658 59.3685,30.0564658 C54.71475,30.0564658 50.942,26.2514701 50.942,21.5579444 L67.795,21.5579444 L67.795,21.5579444 Z" id="Shape" fill="#FEBBBA"></path>
            <path d="M63.47225,3.95249573 C62.90025,1.6348547 60.83675,0.00806837607 58.4685,0.00806837607 L31.8025,0.00806837607 L31.8025,21.5579444 L67.81575,21.5579444 L63.47225,3.95249573 Z" id="Shape" fill="#FEBBBA"></path>
            <path d="M9.711,0.00832051282 C7.36125,0.00832051282 5.309,1.61039744 4.71975,3.90408547 L0.18425,21.5581966 L17.03725,21.5581966 L19.752,0.00806837607 L9.711,0.00832051282 L9.711,0.00832051282 Z" id="Shape" fill="#FDDADA"></path>
            <polygon id="Shape" fill="#FDDADA" points="33.909 0.00832051282 33.909 21.5579444 50.781 21.5579444 48.06625 0.00832051282"></polygon>
        </g>
    </g>
</svg>