<?xml version="1.0" encoding="UTF-8"?>
<svg width="72px" height="72px" viewBox="0 0 72 72" version="1.1" xmlns="http://www.w3.org/2000/svg" xmlns:xlink="http://www.w3.org/1999/xlink">
    <!-- Generator: Sketch 51.2 (57519) - http://www.bohemiancoding.com/sketch -->
    <title>Pending</title>
    <desc>Created with Sketch.</desc>
    <defs></defs>
    <g id="Page-1" stroke="none" stroke-width="1" fill="none" fill-rule="evenodd">
        <g id="Artboard-4" transform="translate(-330.000000, -444.000000)" fill="#444444" fill-rule="nonzero">
            <g id="Pending" transform="translate(336.250000, 450.000000)">
                <path d="M30,59.8148148 C13.5337325,59.8148148 0.185185185,46.4662675 0.185185185,30 C0.185185185,13.5337325 13.5337325,0.185185185 30,0.185185185 C46.4662675,0.185185185 59.8148148,13.5337325 59.8148148,30 C59.8148148,46.4662675 46.4662675,59.8148148 30,59.8148148 Z M30,56.1851852 C44.4616784,56.1851852 56.1851852,44.4616784 56.1851852,30 C56.1851852,15.5383216 44.4616784,3.81481481 30,3.81481481 C15.5383216,3.81481481 3.81481481,15.5383216 3.81481481,30 C3.81481481,44.4616784 15.5383216,56.1851852 30,56.1851852 Z" id="Oval"></path>
                <path d="M31.5269995,30.0386686 L43.4500428,37.7815835 C44.1501799,38.2362578 44.3491667,39.1724174 43.8944924,39.8725545 L43.6200722,40.2951246 C43.1653979,40.9952616 42.2292383,41.1942485 41.5291012,40.7395742 L28.5749366,32.3270413 C27.9548029,31.9243218 27.7278321,31.1438671 28,30.4842554 L28,15.5115712 C28,14.6767535 28.6767535,14 29.5115712,14 L30.0154283,14 C30.850246,14 31.5269995,14.6767535 31.5269995,15.5115712 L31.5269995,30.0386686 Z" id="Combined-Shape"></path>
            </g>
        </g>
    </g>
</svg>