<?xml version="1.0" encoding="UTF-8"?>
<svg width="72px" height="72px" viewBox="0 0 72 72" version="1.1" xmlns="http://www.w3.org/2000/svg" xmlns:xlink="http://www.w3.org/1999/xlink">
    <!-- Generator: Sketch 51.2 (57519) - http://www.bohemiancoding.com/sketch -->
    <title>Settlement</title>
    <desc>Created with Sketch.</desc>
    <defs></defs>
    <g id="Page-1" stroke="none" stroke-width="1" fill="none" fill-rule="evenodd">
        <g id="Artboard-4" transform="translate(-577.000000, -444.000000)" fill="#444444">
            <g id="Group-7" transform="translate(586.000000, 450.000000)">
                <g id="Settlement">
                    <path d="M33.8036341,55.9429785 C36.4712042,57.1466562 34.5312288,60.9717635 31.8628272,59.76887 L23.2397906,55.8700521 C21.8178626,55.2293976 21.5309824,53.4540711 22.6419156,52.4370223 L29.486295,46.1386906 C31.61004,44.1916342 34.7482599,47.2357233 32.626178,49.1827797 L30.7352633,50.921251 C41.5477364,49.2157142 49.4839236,40.3594695 49.4839236,30.0023525 C49.4839236,22.6618791 45.5299661,15.9283415 38.9367108,12.0248187 C36.4346166,10.5396295 38.8327687,6.94663203 41.3356945,8.43260544 C49.2012011,13.0889168 54,21.2417747 54,30.0023525 C54,42.3073101 44.6352325,52.8690916 31.8245765,55.0482579 L33.8036341,55.9429785 Z M15.8557438,48.424502 C18.4276871,49.8116719 16.1883585,53.5050412 13.6155836,52.1170871 C5.19959963,47.5783989 0,39.146382 0,30.0023525 C0,17.693474 9.35478904,7.13169257 22.1671081,4.94782136 L20.1963659,4.05702147 C17.5279643,2.8533438 19.4679396,-0.971763481 22.1363412,0.231130034 L30.7602094,4.12994787 C32.1813058,4.77060237 32.468186,6.54592891 31.3580844,7.56297773 L24.5128734,13.8613094 C22.38996,15.8083658 19.2509085,12.7642767 21.373822,10.8172203 L23.2481059,9.09286381 C12.4514321,10.8031055 4.51524484,19.6546453 4.51524484,30.0023525 C4.51524484,37.6392364 8.82593163,44.6338975 15.8557438,48.424502 Z" id="Shape"></path>
                </g>
            </g>
        </g>
    </g>
</svg>