<?xml version="1.0" encoding="UTF-8"?>
<svg width="72px" height="72px" viewBox="0 0 72 72" version="1.1" xmlns="http://www.w3.org/2000/svg" xmlns:xlink="http://www.w3.org/1999/xlink">
    <!-- Generator: Sketch 51.2 (57519) - http://www.bohemiancoding.com/sketch -->
    <title>Group 7</title>
    <desc>Created with Sketch.</desc>
    <defs></defs>
    <g id="Page-1" stroke="none" stroke-width="1" fill="none" fill-rule="evenodd">
        <g id="Artboard" transform="translate(-577.000000, -196.000000)">
            <g id="Group-7" transform="translate(584.000000, 199.000000)">
                <path d="M29.00046,15.6315789 C38.80599,15.6315789 46.755102,23.2777726 46.755102,32.7105263 C46.755102,42.14328 38.80599,49.7894737 29.00046,49.7894737 C19.19401,49.7894737 11.244898,42.14328 11.244898,32.7105263 C11.244898,23.2777726 19.19401,15.6315789 29.00046,15.6315789 Z" id="Path" fill="#FFEBEB"></path>
                <g id="Settlement">
                    <path d="M36.307607,61.5372764 C39.1727749,62.8613218 37.0890976,67.0689398 34.2230366,65.745757 L24.9612565,61.4570573 C23.4340006,60.7523374 23.12587,58.7994782 24.3190945,57.6807245 L31.670465,50.7525597 C33.9515245,48.6107976 37.3222051,51.9592956 35.0429319,54.1010577 L33.0119495,56.0133761 C44.6253465,54.1372856 53.1493994,44.3954165 53.1493994,33.0025877 C53.1493994,24.928067 48.9025562,17.5211757 41.8209116,13.2273006 C39.1334771,11.5935924 41.7092701,7.64129524 44.3975978,9.27586599 C52.8457345,14.3978085 58,23.3659521 58,33.0025877 C58,46.5380411 47.941546,58.1560007 34.1819526,60.5530837 L36.307607,61.5372764 Z M17.0302433,53.2669522 C19.792701,54.7928391 17.3874962,58.8555453 14.6241454,57.3287958 C5.58475516,52.3362388 0,43.0610202 0,33.0025877 C0,19.4628214 10.0477364,7.84486183 23.8091161,5.4426035 L21.692393,4.46272362 C18.826332,3.13867818 20.9100092,-1.06893983 23.7760702,0.254243038 L33.0387435,4.54294266 C34.5651063,5.24766261 34.8732368,7.2005218 33.6809055,8.31927551 L26.3286418,15.2474403 C24.0484755,17.3892024 20.6769018,14.0407044 22.9570681,11.8989423 L24.9701879,10.0021502 C13.3737604,11.8834161 4.84970742,21.6201098 4.84970742,33.0025877 C4.84970742,41.40316 9.47970434,49.0972873 17.0302433,53.2669522 Z" id="Shape" fill="#FEBBBA"></path>
                    <path d="M22.9003491,24.0265041 L22.9003491,24.0509451 L22.841854,24.0509451 L22.841854,26.5537059 L25.4058354,26.5537059 C27.7349704,26.5537059 28.9106651,27.6591236 29.3346736,29.0320258 L22.9003491,29.0320258 L22.9003491,31.5347867 L29.3346736,31.5347867 C28.9120378,32.9086655 27.7378106,34.0179947 25.4058354,34.0179947 L24.6064206,34.0179947 L24.5966698,34.0082181 L24.5869214,34.0179947 L22.841854,34.0179947 L22.841854,36.5207568 L23.5779021,36.5207568 L31.191852,44.0485909 L32.9466678,42.2692831 L26.9705458,36.3545559 C29.6776703,35.7853205 31.4157846,33.7648159 31.8937783,31.5347867 L35.3010471,31.5347867 L35.3010471,29.0320258 L31.8937783,29.0320258 C31.7001614,28.1316981 31.2804083,27.2802969 30.6946561,26.529265 L35.3010471,26.529265 L35.3010471,24.0265041 L22.9003491,24.0265041 Z" id="Path" fill="#F69A98"></path>
                </g>
            </g>
        </g>
    </g>
</svg>