<?xml version="1.0" encoding="UTF-8"?>
<svg width="72px" height="72px" viewBox="0 0 72 72" version="1.1" xmlns="http://www.w3.org/2000/svg" xmlns:xlink="http://www.w3.org/1999/xlink">
    <!-- Generator: Sketch 51.2 (57519) - http://www.bohemiancoding.com/sketch -->
    <title>Transaction</title>
    <desc>Created with Sketch.</desc>
    <defs></defs>
    <g id="Page-1" stroke="none" stroke-width="1" fill="none" fill-rule="evenodd">
        <g id="Artboard-4" transform="translate(-201.000000, -444.000000)" fill="#444444" fill-rule="nonzero">
            <g id="Transaction" transform="translate(213.000000, 453.000000)">
                <path d="M8,1.75 C4.54822031,1.75 1.75,4.54822031 1.75,8 L1.75,48 C1.75,51.4517797 4.54822031,54.25 8,54.25 L40,54.25 C43.4517797,54.25 46.25,51.4517797 46.25,48 L46.25,8 C46.25,4.54822031 43.4517797,1.75 40,1.75 L8,1.75 Z M8,-1.75 L40,-1.75 C45.3847763,-1.75 49.75,2.61522369 49.75,8 L49.75,48 C49.75,53.3847763 45.3847763,57.75 40,57.75 L8,57.75 C2.61522369,57.75 -1.75,53.3847763 -1.75,48 L-1.75,8 C-1.75,2.61522369 2.61522369,-1.75 8,-1.75 Z" id="Rectangle-2"></path>
                <path d="M13.5,13.737 L34.5,13.737 C35.3284271,13.737 36,14.4085729 36,15.237 L36,15.737 C36,16.5654271 35.3284271,17.237 34.5,17.237 L13.5,17.237 C12.6715729,17.237 12,16.5654271 12,15.737 L12,15.237 C12,14.4085729 12.6715729,13.737 13.5,13.737 Z M24.75,23.737 L34.25,23.737 C35.2164983,23.737 36,24.5205017 36,25.487 L36,25.487 C36,26.4534983 35.2164983,27.237 34.25,27.237 L24.75,27.237 C23.7835017,27.237 23,26.4534983 23,25.487 L23,25.487 C23,24.5205017 23.7835017,23.737 24.75,23.737 Z" id="Shape"></path>
            </g>
        </g>
    </g>
</svg>