<?xml version="1.0" encoding="UTF-8"?>
<svg width="72px" height="72px" viewBox="0 0 72 72" version="1.1" xmlns="http://www.w3.org/2000/svg" xmlns:xlink="http://www.w3.org/1999/xlink">
    <!-- Generator: Sketch 51.2 (57519) - http://www.bohemiancoding.com/sketch -->
    <title>Transaction_Red</title>
    <desc>Created with Sketch.</desc>
    <defs></defs>
    <g id="Page-1" stroke="none" stroke-width="1" fill="none" fill-rule="evenodd">
        <g id="Artboard-4" transform="translate(-201.000000, -333.000000)" fill="#EF5350" fill-rule="nonzero">
            <g id="Transaction" transform="translate(211.000000, 340.000000)">
                <path d="M10,3.75 C6.54822031,3.75 3.75,6.54822031 3.75,10 L3.75,50 C3.75,53.4517797 6.54822031,56.25 10,56.25 L42,56.25 C45.4517797,56.25 48.25,53.4517797 48.25,50 L48.25,10 C48.25,6.54822031 45.4517797,3.75 42,3.75 L10,3.75 Z M10,0.25 L42,0.25 C47.3847763,0.25 51.75,4.61522369 51.75,10 L51.75,50 C51.75,55.3847763 47.3847763,59.75 42,59.75 L10,59.75 C4.61522369,59.75 0.25,55.3847763 0.25,50 L0.25,10 C0.25,4.61522369 4.61522369,0.25 10,0.25 Z" id="Rectangle-2"></path>
                <path d="M15.5,15.737 L36.5,15.737 C37.3284271,15.737 38,16.4085729 38,17.237 L38,17.737 C38,18.5654271 37.3284271,19.237 36.5,19.237 L15.5,19.237 C14.6715729,19.237 14,18.5654271 14,17.737 L14,17.237 C14,16.4085729 14.6715729,15.737 15.5,15.737 Z M26.75,25.737 L36.25,25.737 C37.2164983,25.737 38,26.5205017 38,27.487 L38,27.487 C38,28.4534983 37.2164983,29.237 36.25,29.237 L26.75,29.237 C25.7835017,29.237 25,28.4534983 25,27.487 L25,27.487 C25,26.5205017 25.7835017,25.737 26.75,25.737 Z" id="Shape"></path>
            </g>
        </g>
    </g>
</svg>