<?xml version="1.0" encoding="UTF-8"?>
<svg width="72px" height="72px" viewBox="0 0 72 72" version="1.1" xmlns="http://www.w3.org/2000/svg" xmlns:xlink="http://www.w3.org/1999/xlink">
    <!-- Generator: Sketch 51.2 (57519) - http://www.bohemiancoding.com/sketch -->
    <title>Shape</title>
    <desc>Created with Sketch.</desc>
    <defs></defs>
    <g id="Page-1" stroke="none" stroke-width="1" fill="none" fill-rule="evenodd">
        <g id="Artboard" transform="translate(-359.000000, -318.000000)" fill="#F7D917" fill-rule="nonzero">
            <g id="Group" transform="translate(362.000000, 321.000000)">
                <path d="M0,32.9611225 C0,51.1360094 14.7862355,65.9225352 32.9611225,65.9225352 C51.1360094,65.9225352 65.9225352,51.1362997 65.9225352,32.9611225 C65.9225352,14.7865258 51.1362997,0 32.9611225,0 C14.7862355,0.000290273377 0,14.7865258 0,32.9611225 Z M45.2333003,33.703932 C46.8361899,33.703932 48.1360341,35.0037762 48.1360341,36.6066658 C48.1360341,38.2095554 46.8361899,39.5093996 45.2333003,39.5093996 L30.6937971,39.5093996 C29.0909075,39.5093996 27.7910634,38.2095554 27.7910634,36.6066658 L27.7910634,17.2207583 C27.7910634,15.6178688 29.0909075,14.3180246 30.6937971,14.3180246 C32.2966867,14.3180246 33.5965309,15.6178688 33.5965309,17.2207583 L33.5965309,33.703932 L45.2333003,33.703932 Z" id="Shape"></path>
            </g>
        </g>
    </g>
</svg>